<svg width="874" height="510" viewBox="0 0 874 510" fill="none" xmlns="http://www.w3.org/2000/svg">
<path fill-rule="evenodd" clip-rule="evenodd" d="M370.716 53.3727C395.473 20.9321 434.542 0 478.5 0C519.912 0 556.986 18.5779 581.84 47.8542C606.564 38.278 633.622 33 661.98 33C779.075 33 874 122.991 874 234C874 345.009 779.075 435 661.98 435C651.127 435 640.464 434.227 630.049 432.736C591.648 479.74 531.53 510 463.956 510C399.645 510 342.087 482.591 303.576 439.426C281.099 446.291 257.125 450 232.237 450C103.976 450 0 351.503 0 230C0 108.497 103.976 10 232.237 10C284.132 10 332.051 26.1243 370.716 53.3727Z" fill="#FFE9EE"/>
</svg>
