<svg width="443" height="70" viewBox="0 0 443 70" fill="none" xmlns="http://www.w3.org/2000/svg">
<path d="M201.546 29.0805L178.168 66.4384H196.809L209.035 37.914L221.759 66.4059L243.712 66.4384L215.644 29.2634L215.5 23.6901H238.647V20.7515H215.434L215.032 2.73047H202.077L201.714 20.7515H178.516V23.6901H201.654L201.546 29.0805Z" fill="#FFFBFC"/>
<path d="M166.279 13.7885L153.27 5.34619L154.115 14.5056L166.279 13.7885Z" fill="#FFFBFC"/>
<path d="M167.133 66.9077L174.902 52.0618L165.993 60.6108C162.591 57.0341 160.803 54.3939 158.738 49.6823C160.108 47.0747 161.545 44.2003 163 41.077C164.938 36.9848 169.636 26.1097 169.766 25.7659L160.072 22.7582C158.392 27.8817 156.637 32.934 154.527 37.8293C153.3 32.5933 152.393 25.843 151.647 19.5283H168.064V16.3161H151.287C151.079 14.3308 150.914 12.4876 150.767 10.5971C150.619 8.6354 150.478 6.59965 150.34 4.48389H139.393C139.393 4.48389 139.946 9.63994 140.487 16.3132H123.839H115.967H110.926C106.375 41.6578 102.249 53.2056 98.7771 61.4523L114.253 66.9077L122.219 34.4957H128.007V53.2886L120.74 51.8722L137.37 60.187L137.665 57.5557L137.677 57.5616L137.923 55.2236L140.502 30.8449L128.007 30.919H122.769L124.897 19.5313H140.731C141.801 28.9811 143.34 41.2845 147.346 51.2351C144.521 55.4547 140.265 62.3798 136.138 66.1165L148.846 66.1639C148.846 66.1639 149.618 65.2335 152.456 60.67C156.03 65.5179 164.088 66.6469 167.133 66.9077Z" fill="#FFFBFC"/>
<path d="M259.309 20.0589H265.584H272.005H275.461V4.38623H273.492H265.584H259.309H252.164H249.435V20.0589H250.676H259.309ZM259.309 8.35106H265.584V16.094H259.309V8.35106Z" fill="#FFFBFC"/>
<path d="M287.487 20.0589H293.763H300.072H303.636V4.38623H301.671H293.763H287.487H280.342H277.613V20.0589H278.854H287.487ZM287.487 8.35106H293.763V16.094H287.487V8.35106Z" fill="#FFFBFC"/>
<path d="M282.197 45.1605H288.031H291.052H293.216H295.719H301.256V22.4531H296.642H293.216H291.052H288.031H265.037H261.65H259.855H257.472H251.449V45.1635H256.549H259.855H261.65H265.037H270.871V51.6471H244.292V55.6119H270.871V69.071H282.194V55.6119H307.321V51.6471H282.194V45.1605H282.197ZM282.197 26.418H288.031V31.8259H282.197V26.418ZM282.197 35.7877H288.031V41.1957H282.197V35.7877ZM270.874 41.1957H265.04V35.7877H270.874V41.1957ZM270.874 31.8259H265.04V26.418H270.874V31.8259Z" fill="#FFFBFC"/>
<path d="M348.899 53.9197V45.4537H357.574H362.326H368.977V20.438H362.326H357.574H348.899V13.6521H371.006V9.6873H348.899V0.910156H337.577V9.6873H314.478V13.6521H337.577V20.438H328.704H323.159H317.3V45.4537H323.159H328.704H337.577V53.9197H311.821V57.8845H337.577V69.1686H348.899V57.8845H374.376V53.9197H348.899ZM348.899 24.4028H354.983V30.9634H348.899V24.4028ZM348.899 34.9283H354.983V41.4889H348.899V34.9283ZM337.574 41.4889H331.292V34.9283H337.574V41.4889ZM337.574 30.9634H331.292V24.4028H337.574V30.9634Z" fill="#FFFBFC"/>
<path d="M393.636 12.1085L400.696 19.7151L412.665 9.2667H394.805C395.665 7.1213 396.458 5.00258 396.993 3.26611H385.256C385.256 3.26611 383.963 9.31707 377.648 20.3937H389.972C389.972 20.3937 391.772 16.5355 393.636 12.1085Z" fill="#FFFBFC"/>
<path d="M420.095 20.2603C420.095 20.2603 421.97 16.7015 423.984 12.3751L430.392 19.7625L442.154 9.31409H425.367C426.257 7.2813 427.092 5.22777 427.717 3.39648H417.784C417.784 3.39648 415.322 9.44744 409.265 20.2574H420.095V20.2603Z" fill="#FFFBFC"/>
<path d="M424.501 23.0903H413.443H412.479V68.1288L424.501 62.6734V26.1869H428.451V44.9502L439.419 52.6576V26.1869V23.0903H428.451H424.501Z" fill="#FFFBFC"/>
<path d="M399.668 55.695L394.024 56.6699V44.648H408.947H409.984V26.1869V23.0903H399.016H391.655H384.006H380.687C380.687 23.0903 381.499 61.0881 380.687 64.484L383.131 63.8054L383.137 63.8024L391.652 61.4377V61.4318L400.672 58.9219L402.196 63.8054L411.075 58.0745L397.919 50.1033L399.668 55.695ZM394.024 35.4174H399.016V41.5514H394.024V35.4174ZM399.016 32.3209H394.024V26.1869H399.016V32.3209Z" fill="#FFFBFC"/>
<g clip-path="url(#clip0_127_1637)">
<rect width="77.5446" height="69.1686" fill="#FFFBFC"/>
<path d="M27.9633 25.5076C33.2373 27.2608 37.3703 30.4467 40.2647 35.1062C43.5279 40.3592 44.4324 46.0487 42.9783 52.0044C40.3413 62.7968 30.0576 70.2397 18.4868 69.0458C10.548 68.2272 4.65474 64.209 0.654004 57.4688C0.0486765 56.4523 -0.250509 55.3813 0.250452 54.2283C0.737498 53.1095 1.62114 52.4614 2.84571 52.3728C4.1329 52.2772 5.18353 52.7889 5.77494 53.9214C6.95081 56.159 8.49544 58.0896 10.5202 59.6519C18.3198 65.6962 29.9881 63.5541 35.0464 55.1493C39.8681 47.1403 37.0641 36.9481 28.8052 32.4592C27.2676 31.6201 25.6394 31.0198 23.8861 30.7469C23.7191 30.7196 23.2112 30.6378 23.3086 30.6446C23.3155 30.6241 23.4477 30.5559 23.4616 30.5491C25.2707 29.6008 27.2467 25.2211 27.9633 25.5076Z" fill="#FCDBE3"/>
<path d="M21.8752 7.83178C19.7183 8.39801 17.7284 8.93695 15.7385 9.4486C13.9921 9.89885 12.3431 9.01199 11.9117 7.42246C11.4803 5.81246 12.4544 4.22292 14.173 3.76584C18.7303 2.55152 23.2807 1.3372 27.8381 0.1297C29.2296 -0.23869 30.482 0.238852 31.3587 1.46C32.0823 2.46284 32.0684 3.64305 31.2613 4.74822C26.1125 11.8363 20.9638 18.9176 15.8011 25.9989C14.7783 27.4042 13.2198 27.6361 11.8212 26.6401C10.3601 25.6032 10.0957 24.0955 11.1185 22.6765C14.6739 17.7715 18.2224 12.8733 21.8752 7.83178Z" fill="#FCDBE3"/>
<path d="M23.8721 28.9118C23.4129 29.5599 22.8424 29.9829 22.084 30.1944H22.077C19.8644 30.2694 18.2572 28.7481 18.5425 26.8447C18.5981 26.4491 18.7721 26.1148 19.0086 25.7941C21.5134 22.3354 24.0043 18.8698 26.5161 15.411C27.4276 14.1558 29.007 13.8761 30.2733 14.7493C33.2652 16.8232 36.25 18.8971 39.2141 21.0119C39.7707 21.4076 40.0212 21.3394 40.4038 20.8141C41.4406 19.3814 42.526 17.9761 43.6183 16.5776C44.6551 15.2541 46.4293 14.9949 47.7443 15.9431C49.108 16.9255 49.4003 18.6515 48.4123 20.05C47.8278 20.8823 47.1947 21.6805 46.5754 22.4923C46.5754 22.4923 43.9593 25.9715 42.9921 27.1517C42.0181 28.3456 40.3969 28.4752 39.0819 27.5611C36.097 25.4803 33.1121 23.3996 30.1272 21.3121C29.8906 21.1483 29.661 20.8755 29.3966 21.2643C28.4991 22.581 25.9803 26.0193 23.8721 28.9118Z" fill="#FCDBE3"/>
<path d="M58.8351 40.4274C58.5985 40.2569 58.1532 39.8544 57.7775 39.4178C55.4327 36.6548 54.8065 33.5576 56.2815 30.249C57.8818 26.6606 61.813 24.7299 65.5911 25.419C68.7638 25.9988 70.9207 27.8203 72.1871 30.7129C72.3749 31.1426 72.3401 31.4769 72.0688 31.8453C69.7657 35.0176 67.4558 38.183 65.1806 41.3757C64.7492 41.9829 64.1995 42.3171 63.462 42.1875C61.8339 41.9351 60.157 41.5053 58.8351 40.4274Z" fill="#FCDBE3"/>
<path d="M58.7098 41.212C59.4126 41.7373 59.4543 41.7442 59.8857 41.9761C60.5606 42.3308 61.152 42.4673 61.5695 42.5833C62.3627 42.8016 62.4253 42.7402 62.6131 42.8698C62.6131 42.8698 62.6201 42.8766 62.6271 42.8766C64.8953 45.2029 68.4994 45.776 71.2686 44.2478C74.2187 42.6242 75.6312 39.411 74.7754 36.2592C74.6223 35.693 74.5527 35.1541 74.9423 34.6765C75.2415 34.315 75.6868 34.1922 76.146 34.2945C76.6679 34.4105 76.9531 34.7857 77.1201 35.2769C78.4421 39.2336 76.5566 44.0091 72.8481 46.1853C67.748 49.1802 60.8667 46.9425 58.6333 41.2666C58.6194 41.2257 58.6681 41.1847 58.7098 41.212Z" fill="#FCDBE3"/>
<path d="M47.1251 23.8227C46.7355 22.9632 46.9164 22.7653 47.9531 22.8267C51.0006 23.1201 54.0551 23.4066 57.1026 23.7068C57.374 23.7341 57.6523 23.7272 57.8958 23.8569C58.0767 23.9524 58.1602 24.1638 58.0976 24.3549C58.028 24.5732 57.8749 24.7915 57.7288 24.9825C55.9059 27.493 54.0899 30.0035 52.2739 32.514C51.8077 33.1553 51.4807 33.1212 51.1328 32.3844C49.8039 29.5328 48.468 26.6744 47.1251 23.8227Z" fill="#FCDBE3"/>
</g>
<defs>
<clipPath id="clip0_127_1637">
<rect width="77.5446" height="69.1686" fill="white"/>
</clipPath>
</defs>
</svg>
